G04 #@! TF.GenerationSoftware,KiCad,Pcbnew,(5.0.1)-4*
G04 #@! TF.CreationDate,2019-02-25T09:32:37+08:00*
G04 #@! TF.ProjectId,SMT-Stencil-Grid,534D542D5374656E63696C2D47726964,rev?*
G04 #@! TF.SameCoordinates,Original*
G04 #@! TF.FileFunction,Soldermask,Top*
G04 #@! TF.FilePolarity,Negative*
%FSLAX46Y46*%
G04 Gerber Fmt 4.6, Leading zero omitted, Abs format (unit mm)*
G04 Created by KiCad (PCBNEW (5.0.1)-4) date 2019/2/25 9:32:37*
%MOMM*%
%LPD*%
G01*
G04 APERTURE LIST*
%ADD10C,0.200000*%
G04 APERTURE END LIST*
D10*
X102000000Y-197000000D02*
X102000000Y-127000000D01*
X107000000Y-202000000D02*
G75*
G02X102000000Y-197000000I0J5000000D01*
G01*
X107000000Y-122000000D02*
X197000000Y-122000000D01*
X102000000Y-127000000D02*
G75*
G02X107000000Y-122000000I5000000J0D01*
G01*
X197000000Y-202000000D02*
X107000000Y-202000000D01*
X202000000Y-197000000D02*
G75*
G02X197000000Y-202000000I-5000000J0D01*
G01*
X202000000Y-127000000D02*
X202000000Y-197000000D01*
X197000000Y-122000000D02*
G75*
G02X202000000Y-127000000I0J-5000000D01*
G01*
X95000000Y-202000000D02*
X25000000Y-202000000D01*
X100000000Y-197000000D02*
G75*
G02X95000000Y-202000000I-5000000J0D01*
G01*
X20000000Y-197000000D02*
X20000000Y-107000000D01*
X25000000Y-202000000D02*
G75*
G02X20000000Y-197000000I0J5000000D01*
G01*
X100000000Y-107000000D02*
X100000000Y-197000000D01*
X95000000Y-102000000D02*
G75*
G02X100000000Y-107000000I0J-5000000D01*
G01*
X25000000Y-102000000D02*
X95000000Y-102000000D01*
X20000000Y-107000000D02*
G75*
G02X25000000Y-102000000I5000000J0D01*
G01*
X299000000Y-120000000D02*
X229000000Y-120000000D01*
X304000000Y-115000000D02*
G75*
G02X299000000Y-120000000I-5000000J0D01*
G01*
X224000000Y-115000000D02*
X224000000Y-25000000D01*
X229000000Y-120000000D02*
G75*
G02X224000000Y-115000000I0J5000000D01*
G01*
X304000000Y-25000000D02*
X304000000Y-115000000D01*
X299000000Y-20000000D02*
G75*
G02X304000000Y-25000000I0J-5000000D01*
G01*
X229000000Y-20000000D02*
X299000000Y-20000000D01*
X224000000Y-25000000D02*
G75*
G02X229000000Y-20000000I5000000J0D01*
G01*
X122000000Y-95000000D02*
X122000000Y-25000000D01*
X127000000Y-100000000D02*
G75*
G02X122000000Y-95000000I0J5000000D01*
G01*
X127000000Y-20000000D02*
X217000000Y-20000000D01*
X122000000Y-25000000D02*
G75*
G02X127000000Y-20000000I5000000J0D01*
G01*
X217000000Y-100000000D02*
X127000000Y-100000000D01*
X222000000Y-95000000D02*
G75*
G02X217000000Y-100000000I-5000000J0D01*
G01*
X222000000Y-25000000D02*
X222000000Y-95000000D01*
X217000000Y-20000000D02*
G75*
G02X222000000Y-25000000I0J-5000000D01*
G01*
X20000000Y-95000000D02*
X20000000Y-25000000D01*
X25000000Y-100000000D02*
G75*
G02X20000000Y-95000000I0J5000000D01*
G01*
X25000000Y-20000000D02*
X115000000Y-20000000D01*
X20000000Y-25000000D02*
G75*
G02X25000000Y-20000000I5000000J0D01*
G01*
X115000000Y-100000000D02*
X25000000Y-100000000D01*
X120000000Y-95000000D02*
G75*
G02X115000000Y-100000000I-5000000J0D01*
G01*
X120000000Y-25000000D02*
X120000000Y-95000000D01*
X115000000Y-20000000D02*
G75*
G02X120000000Y-25000000I0J-5000000D01*
G01*
X204000000Y-197000000D02*
X204000000Y-127000000D01*
X299000000Y-122000000D02*
G75*
G02X304000000Y-127000000I0J-5000000D01*
G01*
X299000000Y-202000000D02*
X209000000Y-202000000D01*
X209000000Y-202000000D02*
G75*
G02X204000000Y-197000000I0J5000000D01*
G01*
X209000000Y-122000000D02*
X299000000Y-122000000D01*
X304000000Y-127000000D02*
X304000000Y-197000000D01*
X304000000Y-197000000D02*
G75*
G02X299000000Y-202000000I-5000000J0D01*
G01*
X204000000Y-127000000D02*
G75*
G02X209000000Y-122000000I5000000J0D01*
G01*
M02*
