G04 #@! TF.GenerationSoftware,KiCad,Pcbnew,(5.0.1)-4*
G04 #@! TF.CreationDate,2019-02-25T16:18:08+08:00*
G04 #@! TF.ProjectId,SMT-Stencil-Grid,534D542D5374656E63696C2D47726964,rev?*
G04 #@! TF.SameCoordinates,Original*
G04 #@! TF.FileFunction,Copper,L1,Top,Signal*
G04 #@! TF.FilePolarity,Positive*
%FSLAX46Y46*%
G04 Gerber Fmt 4.6, Leading zero omitted, Abs format (unit mm)*
G04 Created by KiCad (PCBNEW (5.0.1)-4) date 2019/2/25 16:18:08*
%MOMM*%
%LPD*%
G01*
G04 APERTURE LIST*
G04 #@! TA.AperFunction,EtchedComponent*
%ADD10C,0.010000*%
G04 #@! TD*
G04 APERTURE END LIST*
D10*
G04 #@! TO.C,REF\002A\002A*
G36*
X128809014Y-105152998D02*
X128967006Y-105153863D01*
X129081347Y-105156205D01*
X129159407Y-105160762D01*
X129208554Y-105168270D01*
X129236159Y-105179466D01*
X129249592Y-105195088D01*
X129256221Y-105215873D01*
X129256865Y-105218563D01*
X129266935Y-105267113D01*
X129285575Y-105362905D01*
X129310845Y-105495743D01*
X129340807Y-105655431D01*
X129373522Y-105831774D01*
X129374664Y-105837967D01*
X129407433Y-106010782D01*
X129438093Y-106163469D01*
X129464664Y-106286871D01*
X129485167Y-106371831D01*
X129497626Y-106409190D01*
X129498220Y-106409852D01*
X129534919Y-106428095D01*
X129610586Y-106458497D01*
X129708878Y-106494493D01*
X129709425Y-106494685D01*
X129833233Y-106541222D01*
X129979196Y-106600504D01*
X130116781Y-106660109D01*
X130123293Y-106663056D01*
X130347390Y-106764765D01*
X130843619Y-106425897D01*
X130995846Y-106322592D01*
X131133741Y-106230237D01*
X131249315Y-106154084D01*
X131334579Y-106099385D01*
X131381544Y-106071393D01*
X131386004Y-106069317D01*
X131420134Y-106078560D01*
X131483881Y-106123156D01*
X131579731Y-106205209D01*
X131710169Y-106326821D01*
X131843328Y-106456205D01*
X131971694Y-106583702D01*
X132086581Y-106700046D01*
X132181073Y-106798052D01*
X132248253Y-106870536D01*
X132281206Y-106910313D01*
X132282432Y-106912361D01*
X132286074Y-106939656D01*
X132272350Y-106984234D01*
X132237869Y-107052112D01*
X132179239Y-107149311D01*
X132093070Y-107281851D01*
X131978200Y-107452476D01*
X131876254Y-107602655D01*
X131785123Y-107737350D01*
X131710073Y-107848740D01*
X131656369Y-107929005D01*
X131629280Y-107970325D01*
X131627574Y-107973130D01*
X131630882Y-108012721D01*
X131655953Y-108089669D01*
X131697798Y-108189432D01*
X131712712Y-108221291D01*
X131777786Y-108363226D01*
X131847212Y-108524273D01*
X131903609Y-108663621D01*
X131944247Y-108767044D01*
X131976526Y-108845642D01*
X131995178Y-108886720D01*
X131997497Y-108889885D01*
X132031803Y-108895128D01*
X132112669Y-108909494D01*
X132229343Y-108930937D01*
X132371075Y-108957413D01*
X132527110Y-108986877D01*
X132686698Y-109017283D01*
X132839085Y-109046588D01*
X132973521Y-109072745D01*
X133079252Y-109093710D01*
X133145526Y-109107439D01*
X133161782Y-109111320D01*
X133178573Y-109120900D01*
X133191249Y-109142536D01*
X133200378Y-109183531D01*
X133206531Y-109251189D01*
X133210280Y-109352812D01*
X133212192Y-109495703D01*
X133212840Y-109687165D01*
X133212874Y-109765645D01*
X133212874Y-110403906D01*
X133059598Y-110434160D01*
X132974322Y-110450564D01*
X132847070Y-110474509D01*
X132693315Y-110503107D01*
X132528534Y-110533467D01*
X132482989Y-110541806D01*
X132330932Y-110571370D01*
X132198468Y-110600442D01*
X132096714Y-110626329D01*
X132036788Y-110646337D01*
X132026805Y-110652301D01*
X132002293Y-110694534D01*
X131967148Y-110776370D01*
X131928173Y-110881683D01*
X131920442Y-110904368D01*
X131869360Y-111045018D01*
X131805954Y-111203714D01*
X131743904Y-111346225D01*
X131743598Y-111346886D01*
X131640267Y-111570440D01*
X132319961Y-112570232D01*
X131883621Y-113007300D01*
X131751649Y-113137381D01*
X131631279Y-113252048D01*
X131529273Y-113345181D01*
X131452391Y-113410658D01*
X131407393Y-113442357D01*
X131400938Y-113444368D01*
X131363040Y-113428529D01*
X131285708Y-113384496D01*
X131177389Y-113317490D01*
X131046532Y-113232734D01*
X130905052Y-113137816D01*
X130761461Y-113040998D01*
X130633435Y-112956751D01*
X130529105Y-112890258D01*
X130456600Y-112846702D01*
X130424158Y-112831264D01*
X130384576Y-112844328D01*
X130309519Y-112878750D01*
X130214468Y-112927380D01*
X130204392Y-112932785D01*
X130076391Y-112996980D01*
X129988618Y-113028463D01*
X129934028Y-113028798D01*
X129905575Y-112999548D01*
X129905410Y-112999138D01*
X129891188Y-112964498D01*
X129857269Y-112882269D01*
X129806284Y-112758814D01*
X129740862Y-112600498D01*
X129663634Y-112413686D01*
X129577229Y-112204742D01*
X129493551Y-112002446D01*
X129401588Y-111779200D01*
X129317150Y-111572392D01*
X129242769Y-111388362D01*
X129180974Y-111233451D01*
X129134297Y-111113996D01*
X129105268Y-111036339D01*
X129096322Y-111007356D01*
X129118756Y-110974110D01*
X129177439Y-110921123D01*
X129255689Y-110862704D01*
X129478534Y-110677952D01*
X129652718Y-110466182D01*
X129776154Y-110231856D01*
X129846754Y-109979434D01*
X129862431Y-109713377D01*
X129851036Y-109590575D01*
X129788950Y-109335793D01*
X129682023Y-109110801D01*
X129536889Y-108917817D01*
X129360178Y-108759061D01*
X129158522Y-108636750D01*
X128938554Y-108553105D01*
X128706906Y-108510344D01*
X128470209Y-108510687D01*
X128235095Y-108556352D01*
X128008196Y-108649559D01*
X127796144Y-108792527D01*
X127707636Y-108873383D01*
X127537889Y-109081007D01*
X127419699Y-109307895D01*
X127352278Y-109547433D01*
X127334840Y-109793007D01*
X127366598Y-110038003D01*
X127446765Y-110275808D01*
X127574555Y-110499807D01*
X127749180Y-110703387D01*
X127944312Y-110862704D01*
X128025591Y-110923602D01*
X128083009Y-110976015D01*
X128103678Y-111007406D01*
X128092856Y-111041639D01*
X128062077Y-111123419D01*
X128013874Y-111246407D01*
X127950778Y-111404263D01*
X127875322Y-111590649D01*
X127790038Y-111799226D01*
X127706219Y-112002496D01*
X127613745Y-112225933D01*
X127528089Y-112432984D01*
X127451882Y-112617286D01*
X127387753Y-112772475D01*
X127338332Y-112892188D01*
X127306248Y-112970061D01*
X127294359Y-112999138D01*
X127266274Y-113028677D01*
X127211949Y-113028591D01*
X127124395Y-112997326D01*
X126996619Y-112933329D01*
X126995608Y-112932785D01*
X126899402Y-112883121D01*
X126821631Y-112846945D01*
X126777777Y-112831408D01*
X126775842Y-112831264D01*
X126742829Y-112847024D01*
X126669946Y-112890850D01*
X126565322Y-112957557D01*
X126437090Y-113041964D01*
X126294948Y-113137816D01*
X126150233Y-113234867D01*
X126019804Y-113319270D01*
X125912110Y-113385801D01*
X125835598Y-113429238D01*
X125799062Y-113444368D01*
X125765418Y-113424482D01*
X125697776Y-113368903D01*
X125602893Y-113283754D01*
X125487530Y-113175153D01*
X125358445Y-113049221D01*
X125316229Y-113007149D01*
X124879739Y-112569931D01*
X125211977Y-112082340D01*
X125312946Y-111932605D01*
X125401562Y-111798220D01*
X125472854Y-111686969D01*
X125521850Y-111606639D01*
X125543578Y-111565014D01*
X125544215Y-111562053D01*
X125532760Y-111522818D01*
X125501949Y-111443895D01*
X125457116Y-111338509D01*
X125425647Y-111267954D01*
X125366808Y-111132876D01*
X125311396Y-110996409D01*
X125268436Y-110881103D01*
X125256766Y-110845977D01*
X125223611Y-110752174D01*
X125191201Y-110679694D01*
X125173399Y-110652301D01*
X125134114Y-110635536D01*
X125048374Y-110611770D01*
X124927303Y-110583697D01*
X124782027Y-110554009D01*
X124717012Y-110541806D01*
X124551913Y-110511468D01*
X124393552Y-110482093D01*
X124257404Y-110456569D01*
X124158943Y-110437785D01*
X124140402Y-110434160D01*
X123987127Y-110403906D01*
X123987127Y-109765645D01*
X123987471Y-109555770D01*
X123988884Y-109396980D01*
X123991936Y-109281973D01*
X123997197Y-109203446D01*
X124005237Y-109154096D01*
X124016627Y-109126619D01*
X124031937Y-109113713D01*
X124038218Y-109111320D01*
X124076104Y-109102833D01*
X124159805Y-109085900D01*
X124278567Y-109062566D01*
X124421639Y-109034875D01*
X124578268Y-109004873D01*
X124737703Y-108974604D01*
X124889191Y-108946115D01*
X125021981Y-108921449D01*
X125125319Y-108902651D01*
X125188455Y-108891767D01*
X125202503Y-108889885D01*
X125215230Y-108864704D01*
X125243400Y-108797622D01*
X125281748Y-108701333D01*
X125296391Y-108663621D01*
X125355452Y-108517921D01*
X125425000Y-108356951D01*
X125487288Y-108221291D01*
X125533121Y-108117561D01*
X125563613Y-108032326D01*
X125573792Y-107980126D01*
X125572169Y-107973130D01*
X125550657Y-107940102D01*
X125501535Y-107866643D01*
X125430077Y-107760577D01*
X125341555Y-107629726D01*
X125241241Y-107481912D01*
X125221406Y-107452734D01*
X125105012Y-107279863D01*
X125019452Y-107148226D01*
X124961316Y-107051761D01*
X124927192Y-106984408D01*
X124913669Y-106940106D01*
X124917336Y-106912794D01*
X124917430Y-106912620D01*
X124946293Y-106876746D01*
X125010133Y-106807391D01*
X125102031Y-106711745D01*
X125215067Y-106596999D01*
X125342321Y-106470341D01*
X125356672Y-106456205D01*
X125517043Y-106300903D01*
X125640805Y-106186870D01*
X125730445Y-106112002D01*
X125788448Y-106074196D01*
X125813996Y-106069317D01*
X125851282Y-106090603D01*
X125928657Y-106139773D01*
X126038133Y-106211575D01*
X126171720Y-106300755D01*
X126321430Y-106402063D01*
X126356382Y-106425897D01*
X126852610Y-106764765D01*
X127076707Y-106663056D01*
X127212989Y-106603783D01*
X127359276Y-106544170D01*
X127485035Y-106496640D01*
X127490575Y-106494685D01*
X127588943Y-106458677D01*
X127664771Y-106428229D01*
X127701718Y-106409905D01*
X127701780Y-106409852D01*
X127713504Y-106376729D01*
X127733432Y-106295267D01*
X127759587Y-106174625D01*
X127789990Y-106023959D01*
X127822663Y-105852428D01*
X127825336Y-105837967D01*
X127858110Y-105661235D01*
X127888198Y-105500810D01*
X127913661Y-105366888D01*
X127932559Y-105269663D01*
X127942953Y-105219332D01*
X127943135Y-105218563D01*
X127949461Y-105197153D01*
X127961761Y-105180988D01*
X127987406Y-105169331D01*
X128033765Y-105161445D01*
X128108208Y-105156593D01*
X128218105Y-105154039D01*
X128370825Y-105153045D01*
X128573738Y-105152874D01*
X128600000Y-105152874D01*
X128809014Y-105152998D01*
X128809014Y-105152998D01*
G37*
X128809014Y-105152998D02*
X128967006Y-105153863D01*
X129081347Y-105156205D01*
X129159407Y-105160762D01*
X129208554Y-105168270D01*
X129236159Y-105179466D01*
X129249592Y-105195088D01*
X129256221Y-105215873D01*
X129256865Y-105218563D01*
X129266935Y-105267113D01*
X129285575Y-105362905D01*
X129310845Y-105495743D01*
X129340807Y-105655431D01*
X129373522Y-105831774D01*
X129374664Y-105837967D01*
X129407433Y-106010782D01*
X129438093Y-106163469D01*
X129464664Y-106286871D01*
X129485167Y-106371831D01*
X129497626Y-106409190D01*
X129498220Y-106409852D01*
X129534919Y-106428095D01*
X129610586Y-106458497D01*
X129708878Y-106494493D01*
X129709425Y-106494685D01*
X129833233Y-106541222D01*
X129979196Y-106600504D01*
X130116781Y-106660109D01*
X130123293Y-106663056D01*
X130347390Y-106764765D01*
X130843619Y-106425897D01*
X130995846Y-106322592D01*
X131133741Y-106230237D01*
X131249315Y-106154084D01*
X131334579Y-106099385D01*
X131381544Y-106071393D01*
X131386004Y-106069317D01*
X131420134Y-106078560D01*
X131483881Y-106123156D01*
X131579731Y-106205209D01*
X131710169Y-106326821D01*
X131843328Y-106456205D01*
X131971694Y-106583702D01*
X132086581Y-106700046D01*
X132181073Y-106798052D01*
X132248253Y-106870536D01*
X132281206Y-106910313D01*
X132282432Y-106912361D01*
X132286074Y-106939656D01*
X132272350Y-106984234D01*
X132237869Y-107052112D01*
X132179239Y-107149311D01*
X132093070Y-107281851D01*
X131978200Y-107452476D01*
X131876254Y-107602655D01*
X131785123Y-107737350D01*
X131710073Y-107848740D01*
X131656369Y-107929005D01*
X131629280Y-107970325D01*
X131627574Y-107973130D01*
X131630882Y-108012721D01*
X131655953Y-108089669D01*
X131697798Y-108189432D01*
X131712712Y-108221291D01*
X131777786Y-108363226D01*
X131847212Y-108524273D01*
X131903609Y-108663621D01*
X131944247Y-108767044D01*
X131976526Y-108845642D01*
X131995178Y-108886720D01*
X131997497Y-108889885D01*
X132031803Y-108895128D01*
X132112669Y-108909494D01*
X132229343Y-108930937D01*
X132371075Y-108957413D01*
X132527110Y-108986877D01*
X132686698Y-109017283D01*
X132839085Y-109046588D01*
X132973521Y-109072745D01*
X133079252Y-109093710D01*
X133145526Y-109107439D01*
X133161782Y-109111320D01*
X133178573Y-109120900D01*
X133191249Y-109142536D01*
X133200378Y-109183531D01*
X133206531Y-109251189D01*
X133210280Y-109352812D01*
X133212192Y-109495703D01*
X133212840Y-109687165D01*
X133212874Y-109765645D01*
X133212874Y-110403906D01*
X133059598Y-110434160D01*
X132974322Y-110450564D01*
X132847070Y-110474509D01*
X132693315Y-110503107D01*
X132528534Y-110533467D01*
X132482989Y-110541806D01*
X132330932Y-110571370D01*
X132198468Y-110600442D01*
X132096714Y-110626329D01*
X132036788Y-110646337D01*
X132026805Y-110652301D01*
X132002293Y-110694534D01*
X131967148Y-110776370D01*
X131928173Y-110881683D01*
X131920442Y-110904368D01*
X131869360Y-111045018D01*
X131805954Y-111203714D01*
X131743904Y-111346225D01*
X131743598Y-111346886D01*
X131640267Y-111570440D01*
X132319961Y-112570232D01*
X131883621Y-113007300D01*
X131751649Y-113137381D01*
X131631279Y-113252048D01*
X131529273Y-113345181D01*
X131452391Y-113410658D01*
X131407393Y-113442357D01*
X131400938Y-113444368D01*
X131363040Y-113428529D01*
X131285708Y-113384496D01*
X131177389Y-113317490D01*
X131046532Y-113232734D01*
X130905052Y-113137816D01*
X130761461Y-113040998D01*
X130633435Y-112956751D01*
X130529105Y-112890258D01*
X130456600Y-112846702D01*
X130424158Y-112831264D01*
X130384576Y-112844328D01*
X130309519Y-112878750D01*
X130214468Y-112927380D01*
X130204392Y-112932785D01*
X130076391Y-112996980D01*
X129988618Y-113028463D01*
X129934028Y-113028798D01*
X129905575Y-112999548D01*
X129905410Y-112999138D01*
X129891188Y-112964498D01*
X129857269Y-112882269D01*
X129806284Y-112758814D01*
X129740862Y-112600498D01*
X129663634Y-112413686D01*
X129577229Y-112204742D01*
X129493551Y-112002446D01*
X129401588Y-111779200D01*
X129317150Y-111572392D01*
X129242769Y-111388362D01*
X129180974Y-111233451D01*
X129134297Y-111113996D01*
X129105268Y-111036339D01*
X129096322Y-111007356D01*
X129118756Y-110974110D01*
X129177439Y-110921123D01*
X129255689Y-110862704D01*
X129478534Y-110677952D01*
X129652718Y-110466182D01*
X129776154Y-110231856D01*
X129846754Y-109979434D01*
X129862431Y-109713377D01*
X129851036Y-109590575D01*
X129788950Y-109335793D01*
X129682023Y-109110801D01*
X129536889Y-108917817D01*
X129360178Y-108759061D01*
X129158522Y-108636750D01*
X128938554Y-108553105D01*
X128706906Y-108510344D01*
X128470209Y-108510687D01*
X128235095Y-108556352D01*
X128008196Y-108649559D01*
X127796144Y-108792527D01*
X127707636Y-108873383D01*
X127537889Y-109081007D01*
X127419699Y-109307895D01*
X127352278Y-109547433D01*
X127334840Y-109793007D01*
X127366598Y-110038003D01*
X127446765Y-110275808D01*
X127574555Y-110499807D01*
X127749180Y-110703387D01*
X127944312Y-110862704D01*
X128025591Y-110923602D01*
X128083009Y-110976015D01*
X128103678Y-111007406D01*
X128092856Y-111041639D01*
X128062077Y-111123419D01*
X128013874Y-111246407D01*
X127950778Y-111404263D01*
X127875322Y-111590649D01*
X127790038Y-111799226D01*
X127706219Y-112002496D01*
X127613745Y-112225933D01*
X127528089Y-112432984D01*
X127451882Y-112617286D01*
X127387753Y-112772475D01*
X127338332Y-112892188D01*
X127306248Y-112970061D01*
X127294359Y-112999138D01*
X127266274Y-113028677D01*
X127211949Y-113028591D01*
X127124395Y-112997326D01*
X126996619Y-112933329D01*
X126995608Y-112932785D01*
X126899402Y-112883121D01*
X126821631Y-112846945D01*
X126777777Y-112831408D01*
X126775842Y-112831264D01*
X126742829Y-112847024D01*
X126669946Y-112890850D01*
X126565322Y-112957557D01*
X126437090Y-113041964D01*
X126294948Y-113137816D01*
X126150233Y-113234867D01*
X126019804Y-113319270D01*
X125912110Y-113385801D01*
X125835598Y-113429238D01*
X125799062Y-113444368D01*
X125765418Y-113424482D01*
X125697776Y-113368903D01*
X125602893Y-113283754D01*
X125487530Y-113175153D01*
X125358445Y-113049221D01*
X125316229Y-113007149D01*
X124879739Y-112569931D01*
X125211977Y-112082340D01*
X125312946Y-111932605D01*
X125401562Y-111798220D01*
X125472854Y-111686969D01*
X125521850Y-111606639D01*
X125543578Y-111565014D01*
X125544215Y-111562053D01*
X125532760Y-111522818D01*
X125501949Y-111443895D01*
X125457116Y-111338509D01*
X125425647Y-111267954D01*
X125366808Y-111132876D01*
X125311396Y-110996409D01*
X125268436Y-110881103D01*
X125256766Y-110845977D01*
X125223611Y-110752174D01*
X125191201Y-110679694D01*
X125173399Y-110652301D01*
X125134114Y-110635536D01*
X125048374Y-110611770D01*
X124927303Y-110583697D01*
X124782027Y-110554009D01*
X124717012Y-110541806D01*
X124551913Y-110511468D01*
X124393552Y-110482093D01*
X124257404Y-110456569D01*
X124158943Y-110437785D01*
X124140402Y-110434160D01*
X123987127Y-110403906D01*
X123987127Y-109765645D01*
X123987471Y-109555770D01*
X123988884Y-109396980D01*
X123991936Y-109281973D01*
X123997197Y-109203446D01*
X124005237Y-109154096D01*
X124016627Y-109126619D01*
X124031937Y-109113713D01*
X124038218Y-109111320D01*
X124076104Y-109102833D01*
X124159805Y-109085900D01*
X124278567Y-109062566D01*
X124421639Y-109034875D01*
X124578268Y-109004873D01*
X124737703Y-108974604D01*
X124889191Y-108946115D01*
X125021981Y-108921449D01*
X125125319Y-108902651D01*
X125188455Y-108891767D01*
X125202503Y-108889885D01*
X125215230Y-108864704D01*
X125243400Y-108797622D01*
X125281748Y-108701333D01*
X125296391Y-108663621D01*
X125355452Y-108517921D01*
X125425000Y-108356951D01*
X125487288Y-108221291D01*
X125533121Y-108117561D01*
X125563613Y-108032326D01*
X125573792Y-107980126D01*
X125572169Y-107973130D01*
X125550657Y-107940102D01*
X125501535Y-107866643D01*
X125430077Y-107760577D01*
X125341555Y-107629726D01*
X125241241Y-107481912D01*
X125221406Y-107452734D01*
X125105012Y-107279863D01*
X125019452Y-107148226D01*
X124961316Y-107051761D01*
X124927192Y-106984408D01*
X124913669Y-106940106D01*
X124917336Y-106912794D01*
X124917430Y-106912620D01*
X124946293Y-106876746D01*
X125010133Y-106807391D01*
X125102031Y-106711745D01*
X125215067Y-106596999D01*
X125342321Y-106470341D01*
X125356672Y-106456205D01*
X125517043Y-106300903D01*
X125640805Y-106186870D01*
X125730445Y-106112002D01*
X125788448Y-106074196D01*
X125813996Y-106069317D01*
X125851282Y-106090603D01*
X125928657Y-106139773D01*
X126038133Y-106211575D01*
X126171720Y-106300755D01*
X126321430Y-106402063D01*
X126356382Y-106425897D01*
X126852610Y-106764765D01*
X127076707Y-106663056D01*
X127212989Y-106603783D01*
X127359276Y-106544170D01*
X127485035Y-106496640D01*
X127490575Y-106494685D01*
X127588943Y-106458677D01*
X127664771Y-106428229D01*
X127701718Y-106409905D01*
X127701780Y-106409852D01*
X127713504Y-106376729D01*
X127733432Y-106295267D01*
X127759587Y-106174625D01*
X127789990Y-106023959D01*
X127822663Y-105852428D01*
X127825336Y-105837967D01*
X127858110Y-105661235D01*
X127888198Y-105500810D01*
X127913661Y-105366888D01*
X127932559Y-105269663D01*
X127942953Y-105219332D01*
X127943135Y-105218563D01*
X127949461Y-105197153D01*
X127961761Y-105180988D01*
X127987406Y-105169331D01*
X128033765Y-105161445D01*
X128108208Y-105156593D01*
X128218105Y-105154039D01*
X128370825Y-105153045D01*
X128573738Y-105152874D01*
X128600000Y-105152874D01*
X128809014Y-105152998D01*
G36*
X134943439Y-114656540D02*
X135058950Y-114732034D01*
X135114664Y-114799617D01*
X135158804Y-114922255D01*
X135162309Y-115019298D01*
X135154368Y-115149056D01*
X134855115Y-115280039D01*
X134709611Y-115346958D01*
X134614537Y-115400790D01*
X134565101Y-115447416D01*
X134556511Y-115492720D01*
X134583972Y-115542582D01*
X134614253Y-115575632D01*
X134702363Y-115628633D01*
X134798196Y-115632347D01*
X134886212Y-115591041D01*
X134950869Y-115508983D01*
X134962433Y-115480008D01*
X135017825Y-115389509D01*
X135081553Y-115350940D01*
X135168966Y-115317946D01*
X135168966Y-115443034D01*
X135161238Y-115528156D01*
X135130966Y-115599938D01*
X135067518Y-115682356D01*
X135058088Y-115693066D01*
X134987513Y-115766391D01*
X134926847Y-115805742D01*
X134850950Y-115823845D01*
X134788030Y-115829774D01*
X134675487Y-115831251D01*
X134595370Y-115812535D01*
X134545390Y-115784747D01*
X134466838Y-115723641D01*
X134412463Y-115657554D01*
X134378052Y-115574441D01*
X134359388Y-115462254D01*
X134352256Y-115308946D01*
X134351687Y-115231136D01*
X134353622Y-115137853D01*
X134529899Y-115137853D01*
X134531944Y-115187896D01*
X134537039Y-115196092D01*
X134570666Y-115184958D01*
X134643030Y-115155493D01*
X134739747Y-115113601D01*
X134759973Y-115104597D01*
X134882203Y-115042442D01*
X134949547Y-114987815D01*
X134964348Y-114936649D01*
X134928947Y-114884876D01*
X134899711Y-114862000D01*
X134794216Y-114816250D01*
X134695476Y-114823808D01*
X134612812Y-114879651D01*
X134555548Y-114978753D01*
X134537188Y-115057414D01*
X134529899Y-115137853D01*
X134353622Y-115137853D01*
X134355459Y-115049351D01*
X134369359Y-114914853D01*
X134396894Y-114816916D01*
X134441572Y-114744811D01*
X134506901Y-114687813D01*
X134535383Y-114669393D01*
X134664763Y-114621422D01*
X134806412Y-114618403D01*
X134943439Y-114656540D01*
X134943439Y-114656540D01*
G37*
X134943439Y-114656540D02*
X135058950Y-114732034D01*
X135114664Y-114799617D01*
X135158804Y-114922255D01*
X135162309Y-115019298D01*
X135154368Y-115149056D01*
X134855115Y-115280039D01*
X134709611Y-115346958D01*
X134614537Y-115400790D01*
X134565101Y-115447416D01*
X134556511Y-115492720D01*
X134583972Y-115542582D01*
X134614253Y-115575632D01*
X134702363Y-115628633D01*
X134798196Y-115632347D01*
X134886212Y-115591041D01*
X134950869Y-115508983D01*
X134962433Y-115480008D01*
X135017825Y-115389509D01*
X135081553Y-115350940D01*
X135168966Y-115317946D01*
X135168966Y-115443034D01*
X135161238Y-115528156D01*
X135130966Y-115599938D01*
X135067518Y-115682356D01*
X135058088Y-115693066D01*
X134987513Y-115766391D01*
X134926847Y-115805742D01*
X134850950Y-115823845D01*
X134788030Y-115829774D01*
X134675487Y-115831251D01*
X134595370Y-115812535D01*
X134545390Y-115784747D01*
X134466838Y-115723641D01*
X134412463Y-115657554D01*
X134378052Y-115574441D01*
X134359388Y-115462254D01*
X134352256Y-115308946D01*
X134351687Y-115231136D01*
X134353622Y-115137853D01*
X134529899Y-115137853D01*
X134531944Y-115187896D01*
X134537039Y-115196092D01*
X134570666Y-115184958D01*
X134643030Y-115155493D01*
X134739747Y-115113601D01*
X134759973Y-115104597D01*
X134882203Y-115042442D01*
X134949547Y-114987815D01*
X134964348Y-114936649D01*
X134928947Y-114884876D01*
X134899711Y-114862000D01*
X134794216Y-114816250D01*
X134695476Y-114823808D01*
X134612812Y-114879651D01*
X134555548Y-114978753D01*
X134537188Y-115057414D01*
X134529899Y-115137853D01*
X134353622Y-115137853D01*
X134355459Y-115049351D01*
X134369359Y-114914853D01*
X134396894Y-114816916D01*
X134441572Y-114744811D01*
X134506901Y-114687813D01*
X134535383Y-114669393D01*
X134664763Y-114621422D01*
X134806412Y-114618403D01*
X134943439Y-114656540D01*
G36*
X133935690Y-114640018D02*
X133970585Y-114655269D01*
X134053877Y-114721235D01*
X134125103Y-114816618D01*
X134169153Y-114918406D01*
X134176322Y-114968587D01*
X134152285Y-115038647D01*
X134099561Y-115075717D01*
X134043031Y-115098164D01*
X134017146Y-115102300D01*
X134004542Y-115072283D01*
X133979654Y-115006961D01*
X133968735Y-114977445D01*
X133907508Y-114875348D01*
X133818861Y-114824423D01*
X133705193Y-114825989D01*
X133696774Y-114827994D01*
X133636088Y-114856767D01*
X133591474Y-114912859D01*
X133561002Y-115003163D01*
X133542744Y-115134571D01*
X133534771Y-115313974D01*
X133534023Y-115409433D01*
X133533652Y-115559913D01*
X133531223Y-115662495D01*
X133524760Y-115727672D01*
X133512288Y-115765938D01*
X133491833Y-115787785D01*
X133461419Y-115803707D01*
X133459661Y-115804509D01*
X133401091Y-115829272D01*
X133372075Y-115838391D01*
X133367616Y-115810822D01*
X133363799Y-115734620D01*
X133360899Y-115619541D01*
X133359191Y-115475341D01*
X133358851Y-115369814D01*
X133360588Y-115165613D01*
X133367382Y-115010697D01*
X133381607Y-114896024D01*
X133405638Y-114812551D01*
X133441848Y-114751236D01*
X133492612Y-114703034D01*
X133542739Y-114669393D01*
X133663275Y-114624619D01*
X133803557Y-114614521D01*
X133935690Y-114640018D01*
X133935690Y-114640018D01*
G37*
X133935690Y-114640018D02*
X133970585Y-114655269D01*
X134053877Y-114721235D01*
X134125103Y-114816618D01*
X134169153Y-114918406D01*
X134176322Y-114968587D01*
X134152285Y-115038647D01*
X134099561Y-115075717D01*
X134043031Y-115098164D01*
X134017146Y-115102300D01*
X134004542Y-115072283D01*
X133979654Y-115006961D01*
X133968735Y-114977445D01*
X133907508Y-114875348D01*
X133818861Y-114824423D01*
X133705193Y-114825989D01*
X133696774Y-114827994D01*
X133636088Y-114856767D01*
X133591474Y-114912859D01*
X133561002Y-115003163D01*
X133542744Y-115134571D01*
X133534771Y-115313974D01*
X133534023Y-115409433D01*
X133533652Y-115559913D01*
X133531223Y-115662495D01*
X133524760Y-115727672D01*
X133512288Y-115765938D01*
X133491833Y-115787785D01*
X133461419Y-115803707D01*
X133459661Y-115804509D01*
X133401091Y-115829272D01*
X133372075Y-115838391D01*
X133367616Y-115810822D01*
X133363799Y-115734620D01*
X133360899Y-115619541D01*
X133359191Y-115475341D01*
X133358851Y-115369814D01*
X133360588Y-115165613D01*
X133367382Y-115010697D01*
X133381607Y-114896024D01*
X133405638Y-114812551D01*
X133441848Y-114751236D01*
X133492612Y-114703034D01*
X133542739Y-114669393D01*
X133663275Y-114624619D01*
X133803557Y-114614521D01*
X133935690Y-114640018D01*
G36*
X132914406Y-114635156D02*
X132998469Y-114673393D01*
X133064450Y-114719726D01*
X133112794Y-114771532D01*
X133146172Y-114838363D01*
X133167253Y-114929769D01*
X133178707Y-115055301D01*
X133183203Y-115224508D01*
X133183678Y-115335933D01*
X133183678Y-115770627D01*
X133109316Y-115804509D01*
X133050746Y-115829272D01*
X133021730Y-115838391D01*
X133016179Y-115811257D01*
X133011775Y-115738094D01*
X133009078Y-115631263D01*
X133008506Y-115546437D01*
X133006046Y-115423887D01*
X132999412Y-115326668D01*
X132989726Y-115267134D01*
X132982032Y-115254483D01*
X132930311Y-115267402D01*
X132849117Y-115300539D01*
X132755102Y-115345461D01*
X132664917Y-115393735D01*
X132595215Y-115436928D01*
X132562648Y-115466608D01*
X132562519Y-115466929D01*
X132565320Y-115521857D01*
X132590439Y-115574292D01*
X132634541Y-115616881D01*
X132698909Y-115631126D01*
X132753921Y-115629466D01*
X132831835Y-115628245D01*
X132872732Y-115646498D01*
X132897295Y-115694726D01*
X132900392Y-115703820D01*
X132911040Y-115772598D01*
X132882565Y-115814360D01*
X132808344Y-115834263D01*
X132728168Y-115837944D01*
X132583890Y-115810658D01*
X132509203Y-115771690D01*
X132416963Y-115680148D01*
X132368043Y-115567782D01*
X132363654Y-115449051D01*
X132405001Y-115338411D01*
X132467197Y-115269080D01*
X132529294Y-115230265D01*
X132626895Y-115181125D01*
X132740632Y-115131292D01*
X132759590Y-115123677D01*
X132884521Y-115068545D01*
X132956539Y-115019954D01*
X132979700Y-114971647D01*
X132958064Y-114917370D01*
X132920920Y-114874943D01*
X132833127Y-114822702D01*
X132736530Y-114818784D01*
X132647944Y-114859041D01*
X132584186Y-114939326D01*
X132575817Y-114960040D01*
X132527096Y-115036225D01*
X132455965Y-115092785D01*
X132366207Y-115139201D01*
X132366207Y-115007584D01*
X132371490Y-114927168D01*
X132394142Y-114863786D01*
X132444367Y-114796163D01*
X132492582Y-114744076D01*
X132567554Y-114670322D01*
X132625806Y-114630702D01*
X132688372Y-114614810D01*
X132759193Y-114612184D01*
X132914406Y-114635156D01*
X132914406Y-114635156D01*
G37*
X132914406Y-114635156D02*
X132998469Y-114673393D01*
X133064450Y-114719726D01*
X133112794Y-114771532D01*
X133146172Y-114838363D01*
X133167253Y-114929769D01*
X133178707Y-115055301D01*
X133183203Y-115224508D01*
X133183678Y-115335933D01*
X133183678Y-115770627D01*
X133109316Y-115804509D01*
X133050746Y-115829272D01*
X133021730Y-115838391D01*
X133016179Y-115811257D01*
X133011775Y-115738094D01*
X133009078Y-115631263D01*
X133008506Y-115546437D01*
X133006046Y-115423887D01*
X132999412Y-115326668D01*
X132989726Y-115267134D01*
X132982032Y-115254483D01*
X132930311Y-115267402D01*
X132849117Y-115300539D01*
X132755102Y-115345461D01*
X132664917Y-115393735D01*
X132595215Y-115436928D01*
X132562648Y-115466608D01*
X132562519Y-115466929D01*
X132565320Y-115521857D01*
X132590439Y-115574292D01*
X132634541Y-115616881D01*
X132698909Y-115631126D01*
X132753921Y-115629466D01*
X132831835Y-115628245D01*
X132872732Y-115646498D01*
X132897295Y-115694726D01*
X132900392Y-115703820D01*
X132911040Y-115772598D01*
X132882565Y-115814360D01*
X132808344Y-115834263D01*
X132728168Y-115837944D01*
X132583890Y-115810658D01*
X132509203Y-115771690D01*
X132416963Y-115680148D01*
X132368043Y-115567782D01*
X132363654Y-115449051D01*
X132405001Y-115338411D01*
X132467197Y-115269080D01*
X132529294Y-115230265D01*
X132626895Y-115181125D01*
X132740632Y-115131292D01*
X132759590Y-115123677D01*
X132884521Y-115068545D01*
X132956539Y-115019954D01*
X132979700Y-114971647D01*
X132958064Y-114917370D01*
X132920920Y-114874943D01*
X132833127Y-114822702D01*
X132736530Y-114818784D01*
X132647944Y-114859041D01*
X132584186Y-114939326D01*
X132575817Y-114960040D01*
X132527096Y-115036225D01*
X132455965Y-115092785D01*
X132366207Y-115139201D01*
X132366207Y-115007584D01*
X132371490Y-114927168D01*
X132394142Y-114863786D01*
X132444367Y-114796163D01*
X132492582Y-114744076D01*
X132567554Y-114670322D01*
X132625806Y-114630702D01*
X132688372Y-114614810D01*
X132759193Y-114612184D01*
X132914406Y-114635156D01*
G36*
X132180124Y-114639840D02*
X132184579Y-114716653D01*
X132188071Y-114833391D01*
X132190315Y-114980821D01*
X132191035Y-115135455D01*
X132191035Y-115658727D01*
X132098645Y-115751117D01*
X132034978Y-115808047D01*
X131979089Y-115831107D01*
X131902702Y-115829647D01*
X131872380Y-115825934D01*
X131777610Y-115815126D01*
X131699222Y-115808933D01*
X131680115Y-115808361D01*
X131615699Y-115812102D01*
X131523571Y-115821494D01*
X131487850Y-115825934D01*
X131400114Y-115832801D01*
X131341153Y-115817885D01*
X131282690Y-115771835D01*
X131261585Y-115751117D01*
X131169195Y-115658727D01*
X131169195Y-114679947D01*
X131243558Y-114646066D01*
X131307590Y-114620970D01*
X131345052Y-114612184D01*
X131354657Y-114639950D01*
X131363635Y-114717530D01*
X131371386Y-114836348D01*
X131377314Y-114987828D01*
X131380173Y-115115805D01*
X131388161Y-115619425D01*
X131457848Y-115629278D01*
X131521229Y-115622389D01*
X131552286Y-115600083D01*
X131560967Y-115558379D01*
X131568378Y-115469544D01*
X131573931Y-115344834D01*
X131577036Y-115195507D01*
X131577484Y-115118661D01*
X131577931Y-114676287D01*
X131669874Y-114644235D01*
X131734949Y-114622443D01*
X131770347Y-114612281D01*
X131771368Y-114612184D01*
X131774920Y-114639809D01*
X131778823Y-114716411D01*
X131782751Y-114832579D01*
X131786376Y-114978904D01*
X131788908Y-115115805D01*
X131796897Y-115619425D01*
X131972069Y-115619425D01*
X131980107Y-115159965D01*
X131988146Y-114700505D01*
X132073543Y-114656344D01*
X132136593Y-114626019D01*
X132173910Y-114612258D01*
X132174987Y-114612184D01*
X132180124Y-114639840D01*
X132180124Y-114639840D01*
G37*
X132180124Y-114639840D02*
X132184579Y-114716653D01*
X132188071Y-114833391D01*
X132190315Y-114980821D01*
X132191035Y-115135455D01*
X132191035Y-115658727D01*
X132098645Y-115751117D01*
X132034978Y-115808047D01*
X131979089Y-115831107D01*
X131902702Y-115829647D01*
X131872380Y-115825934D01*
X131777610Y-115815126D01*
X131699222Y-115808933D01*
X131680115Y-115808361D01*
X131615699Y-115812102D01*
X131523571Y-115821494D01*
X131487850Y-115825934D01*
X131400114Y-115832801D01*
X131341153Y-115817885D01*
X131282690Y-115771835D01*
X131261585Y-115751117D01*
X131169195Y-115658727D01*
X131169195Y-114679947D01*
X131243558Y-114646066D01*
X131307590Y-114620970D01*
X131345052Y-114612184D01*
X131354657Y-114639950D01*
X131363635Y-114717530D01*
X131371386Y-114836348D01*
X131377314Y-114987828D01*
X131380173Y-115115805D01*
X131388161Y-115619425D01*
X131457848Y-115629278D01*
X131521229Y-115622389D01*
X131552286Y-115600083D01*
X131560967Y-115558379D01*
X131568378Y-115469544D01*
X131573931Y-115344834D01*
X131577036Y-115195507D01*
X131577484Y-115118661D01*
X131577931Y-114676287D01*
X131669874Y-114644235D01*
X131734949Y-114622443D01*
X131770347Y-114612281D01*
X131771368Y-114612184D01*
X131774920Y-114639809D01*
X131778823Y-114716411D01*
X131782751Y-114832579D01*
X131786376Y-114978904D01*
X131788908Y-115115805D01*
X131796897Y-115619425D01*
X131972069Y-115619425D01*
X131980107Y-115159965D01*
X131988146Y-114700505D01*
X132073543Y-114656344D01*
X132136593Y-114626019D01*
X132173910Y-114612258D01*
X132174987Y-114612184D01*
X132180124Y-114639840D01*
G36*
X130993914Y-114854455D02*
X130993543Y-115072661D01*
X130992108Y-115240519D01*
X130989002Y-115366070D01*
X130983622Y-115457355D01*
X130975362Y-115522415D01*
X130963616Y-115569291D01*
X130947781Y-115606024D01*
X130935790Y-115626991D01*
X130836490Y-115740694D01*
X130710588Y-115811965D01*
X130571291Y-115837538D01*
X130431805Y-115814150D01*
X130348743Y-115772119D01*
X130261545Y-115699411D01*
X130202117Y-115610612D01*
X130166261Y-115494320D01*
X130149781Y-115339135D01*
X130147447Y-115225287D01*
X130147761Y-115217106D01*
X130351724Y-115217106D01*
X130352970Y-115347657D01*
X130358678Y-115434080D01*
X130371804Y-115490618D01*
X130395306Y-115531514D01*
X130423386Y-115562362D01*
X130517688Y-115621905D01*
X130618940Y-115626992D01*
X130714636Y-115577279D01*
X130722084Y-115570543D01*
X130753874Y-115535502D01*
X130773808Y-115493811D01*
X130784600Y-115431762D01*
X130788965Y-115335644D01*
X130789655Y-115229379D01*
X130788159Y-115095880D01*
X130781964Y-115006822D01*
X130768514Y-114948293D01*
X130745251Y-114906382D01*
X130726175Y-114884123D01*
X130637563Y-114827985D01*
X130535508Y-114821235D01*
X130438095Y-114864114D01*
X130419296Y-114880032D01*
X130387293Y-114915382D01*
X130367318Y-114957502D01*
X130356593Y-115020251D01*
X130352339Y-115117487D01*
X130351724Y-115217106D01*
X130147761Y-115217106D01*
X130154504Y-115041947D01*
X130178472Y-114904195D01*
X130223548Y-114800632D01*
X130293928Y-114719856D01*
X130348743Y-114678455D01*
X130448376Y-114633728D01*
X130563855Y-114612967D01*
X130671199Y-114618525D01*
X130731264Y-114640943D01*
X130754835Y-114647323D01*
X130770477Y-114623535D01*
X130781395Y-114559788D01*
X130789655Y-114462687D01*
X130798699Y-114354541D01*
X130811261Y-114289475D01*
X130834119Y-114252268D01*
X130874051Y-114227699D01*
X130899138Y-114216819D01*
X130994023Y-114177072D01*
X130993914Y-114854455D01*
X130993914Y-114854455D01*
G37*
X130993914Y-114854455D02*
X130993543Y-115072661D01*
X130992108Y-115240519D01*
X130989002Y-115366070D01*
X130983622Y-115457355D01*
X130975362Y-115522415D01*
X130963616Y-115569291D01*
X130947781Y-115606024D01*
X130935790Y-115626991D01*
X130836490Y-115740694D01*
X130710588Y-115811965D01*
X130571291Y-115837538D01*
X130431805Y-115814150D01*
X130348743Y-115772119D01*
X130261545Y-115699411D01*
X130202117Y-115610612D01*
X130166261Y-115494320D01*
X130149781Y-115339135D01*
X130147447Y-115225287D01*
X130147761Y-115217106D01*
X130351724Y-115217106D01*
X130352970Y-115347657D01*
X130358678Y-115434080D01*
X130371804Y-115490618D01*
X130395306Y-115531514D01*
X130423386Y-115562362D01*
X130517688Y-115621905D01*
X130618940Y-115626992D01*
X130714636Y-115577279D01*
X130722084Y-115570543D01*
X130753874Y-115535502D01*
X130773808Y-115493811D01*
X130784600Y-115431762D01*
X130788965Y-115335644D01*
X130789655Y-115229379D01*
X130788159Y-115095880D01*
X130781964Y-115006822D01*
X130768514Y-114948293D01*
X130745251Y-114906382D01*
X130726175Y-114884123D01*
X130637563Y-114827985D01*
X130535508Y-114821235D01*
X130438095Y-114864114D01*
X130419296Y-114880032D01*
X130387293Y-114915382D01*
X130367318Y-114957502D01*
X130356593Y-115020251D01*
X130352339Y-115117487D01*
X130351724Y-115217106D01*
X130147761Y-115217106D01*
X130154504Y-115041947D01*
X130178472Y-114904195D01*
X130223548Y-114800632D01*
X130293928Y-114719856D01*
X130348743Y-114678455D01*
X130448376Y-114633728D01*
X130563855Y-114612967D01*
X130671199Y-114618525D01*
X130731264Y-114640943D01*
X130754835Y-114647323D01*
X130770477Y-114623535D01*
X130781395Y-114559788D01*
X130789655Y-114462687D01*
X130798699Y-114354541D01*
X130811261Y-114289475D01*
X130834119Y-114252268D01*
X130874051Y-114227699D01*
X130899138Y-114216819D01*
X130994023Y-114177072D01*
X130993914Y-114854455D01*
G36*
X129665943Y-114621920D02*
X129798565Y-114670859D01*
X129906010Y-114757419D01*
X129948032Y-114818352D01*
X129993843Y-114930161D01*
X129992891Y-115011006D01*
X129944808Y-115065378D01*
X129927017Y-115074624D01*
X129850204Y-115103450D01*
X129810976Y-115096065D01*
X129797689Y-115047658D01*
X129797012Y-115020920D01*
X129772686Y-114922548D01*
X129709281Y-114853734D01*
X129621154Y-114820498D01*
X129522663Y-114828861D01*
X129442602Y-114872296D01*
X129415561Y-114897072D01*
X129396394Y-114927129D01*
X129383446Y-114972565D01*
X129375064Y-115043476D01*
X129369593Y-115149960D01*
X129365378Y-115302112D01*
X129364287Y-115350287D01*
X129360307Y-115515095D01*
X129355781Y-115631088D01*
X129348995Y-115707833D01*
X129338231Y-115754893D01*
X129321773Y-115781835D01*
X129297906Y-115798223D01*
X129282626Y-115805463D01*
X129217733Y-115830220D01*
X129179534Y-115838391D01*
X129166912Y-115811103D01*
X129159208Y-115728603D01*
X129156380Y-115589941D01*
X129158386Y-115394162D01*
X129159011Y-115363965D01*
X129163421Y-115185349D01*
X129168635Y-115054923D01*
X129176055Y-114962492D01*
X129187082Y-114897858D01*
X129203117Y-114850825D01*
X129225561Y-114811196D01*
X129237302Y-114794215D01*
X129304619Y-114719080D01*
X129379910Y-114660638D01*
X129389128Y-114655536D01*
X129524133Y-114615260D01*
X129665943Y-114621920D01*
X129665943Y-114621920D01*
G37*
X129665943Y-114621920D02*
X129798565Y-114670859D01*
X129906010Y-114757419D01*
X129948032Y-114818352D01*
X129993843Y-114930161D01*
X129992891Y-115011006D01*
X129944808Y-115065378D01*
X129927017Y-115074624D01*
X129850204Y-115103450D01*
X129810976Y-115096065D01*
X129797689Y-115047658D01*
X129797012Y-115020920D01*
X129772686Y-114922548D01*
X129709281Y-114853734D01*
X129621154Y-114820498D01*
X129522663Y-114828861D01*
X129442602Y-114872296D01*
X129415561Y-114897072D01*
X129396394Y-114927129D01*
X129383446Y-114972565D01*
X129375064Y-115043476D01*
X129369593Y-115149960D01*
X129365378Y-115302112D01*
X129364287Y-115350287D01*
X129360307Y-115515095D01*
X129355781Y-115631088D01*
X129348995Y-115707833D01*
X129338231Y-115754893D01*
X129321773Y-115781835D01*
X129297906Y-115798223D01*
X129282626Y-115805463D01*
X129217733Y-115830220D01*
X129179534Y-115838391D01*
X129166912Y-115811103D01*
X129159208Y-115728603D01*
X129156380Y-115589941D01*
X129158386Y-115394162D01*
X129159011Y-115363965D01*
X129163421Y-115185349D01*
X129168635Y-115054923D01*
X129176055Y-114962492D01*
X129187082Y-114897858D01*
X129203117Y-114850825D01*
X129225561Y-114811196D01*
X129237302Y-114794215D01*
X129304619Y-114719080D01*
X129379910Y-114660638D01*
X129389128Y-114655536D01*
X129524133Y-114615260D01*
X129665943Y-114621920D01*
G36*
X128679944Y-114624360D02*
X128794343Y-114666842D01*
X128795652Y-114667658D01*
X128866403Y-114719730D01*
X128918636Y-114780584D01*
X128955371Y-114859887D01*
X128979634Y-114967309D01*
X128994445Y-115112517D01*
X129002829Y-115305179D01*
X129003564Y-115332628D01*
X129014120Y-115746521D01*
X128925291Y-115792456D01*
X128861018Y-115823498D01*
X128822210Y-115838206D01*
X128820415Y-115838391D01*
X128813700Y-115811250D01*
X128808365Y-115738041D01*
X128805083Y-115631081D01*
X128804368Y-115544469D01*
X128804351Y-115404162D01*
X128797937Y-115316051D01*
X128775580Y-115274025D01*
X128727732Y-115271975D01*
X128644849Y-115303790D01*
X128519713Y-115362272D01*
X128427697Y-115410845D01*
X128380371Y-115452986D01*
X128366458Y-115498916D01*
X128366437Y-115501189D01*
X128389395Y-115580311D01*
X128457370Y-115623055D01*
X128561398Y-115629246D01*
X128636330Y-115628172D01*
X128675839Y-115649753D01*
X128700478Y-115701591D01*
X128714659Y-115767632D01*
X128694223Y-115805104D01*
X128686528Y-115810467D01*
X128614083Y-115832006D01*
X128512633Y-115835055D01*
X128408157Y-115820778D01*
X128334125Y-115794688D01*
X128231772Y-115707785D01*
X128173591Y-115586816D01*
X128162069Y-115492308D01*
X128170862Y-115407062D01*
X128202680Y-115337476D01*
X128265684Y-115275672D01*
X128368031Y-115213772D01*
X128517882Y-115143897D01*
X128527012Y-115139948D01*
X128661997Y-115077588D01*
X128745294Y-115026446D01*
X128780997Y-114980488D01*
X128773203Y-114933683D01*
X128726007Y-114879998D01*
X128711894Y-114867644D01*
X128617359Y-114819741D01*
X128519406Y-114821758D01*
X128434097Y-114868724D01*
X128377496Y-114955669D01*
X128372237Y-114972734D01*
X128321023Y-115055504D01*
X128256037Y-115095372D01*
X128162069Y-115134882D01*
X128162069Y-115032658D01*
X128190653Y-114884072D01*
X128275495Y-114747784D01*
X128319645Y-114702191D01*
X128420005Y-114643674D01*
X128547635Y-114617184D01*
X128679944Y-114624360D01*
X128679944Y-114624360D01*
G37*
X128679944Y-114624360D02*
X128794343Y-114666842D01*
X128795652Y-114667658D01*
X128866403Y-114719730D01*
X128918636Y-114780584D01*
X128955371Y-114859887D01*
X128979634Y-114967309D01*
X128994445Y-115112517D01*
X129002829Y-115305179D01*
X129003564Y-115332628D01*
X129014120Y-115746521D01*
X128925291Y-115792456D01*
X128861018Y-115823498D01*
X128822210Y-115838206D01*
X128820415Y-115838391D01*
X128813700Y-115811250D01*
X128808365Y-115738041D01*
X128805083Y-115631081D01*
X128804368Y-115544469D01*
X128804351Y-115404162D01*
X128797937Y-115316051D01*
X128775580Y-115274025D01*
X128727732Y-115271975D01*
X128644849Y-115303790D01*
X128519713Y-115362272D01*
X128427697Y-115410845D01*
X128380371Y-115452986D01*
X128366458Y-115498916D01*
X128366437Y-115501189D01*
X128389395Y-115580311D01*
X128457370Y-115623055D01*
X128561398Y-115629246D01*
X128636330Y-115628172D01*
X128675839Y-115649753D01*
X128700478Y-115701591D01*
X128714659Y-115767632D01*
X128694223Y-115805104D01*
X128686528Y-115810467D01*
X128614083Y-115832006D01*
X128512633Y-115835055D01*
X128408157Y-115820778D01*
X128334125Y-115794688D01*
X128231772Y-115707785D01*
X128173591Y-115586816D01*
X128162069Y-115492308D01*
X128170862Y-115407062D01*
X128202680Y-115337476D01*
X128265684Y-115275672D01*
X128368031Y-115213772D01*
X128517882Y-115143897D01*
X128527012Y-115139948D01*
X128661997Y-115077588D01*
X128745294Y-115026446D01*
X128780997Y-114980488D01*
X128773203Y-114933683D01*
X128726007Y-114879998D01*
X128711894Y-114867644D01*
X128617359Y-114819741D01*
X128519406Y-114821758D01*
X128434097Y-114868724D01*
X128377496Y-114955669D01*
X128372237Y-114972734D01*
X128321023Y-115055504D01*
X128256037Y-115095372D01*
X128162069Y-115134882D01*
X128162069Y-115032658D01*
X128190653Y-114884072D01*
X128275495Y-114747784D01*
X128319645Y-114702191D01*
X128420005Y-114643674D01*
X128547635Y-114617184D01*
X128679944Y-114624360D01*
G36*
X127344598Y-114423857D02*
X127353154Y-114543188D01*
X127362981Y-114613506D01*
X127376599Y-114644179D01*
X127396527Y-114644571D01*
X127402989Y-114640910D01*
X127488940Y-114614398D01*
X127600745Y-114615946D01*
X127714414Y-114643199D01*
X127785510Y-114678455D01*
X127858405Y-114734778D01*
X127911693Y-114798519D01*
X127948275Y-114879510D01*
X127971050Y-114987586D01*
X127982919Y-115132580D01*
X127986782Y-115324326D01*
X127986851Y-115361109D01*
X127986897Y-115774288D01*
X127894954Y-115806339D01*
X127829652Y-115828144D01*
X127793824Y-115838297D01*
X127792770Y-115838391D01*
X127789242Y-115810860D01*
X127786239Y-115734923D01*
X127783990Y-115620565D01*
X127782724Y-115477769D01*
X127782529Y-115390951D01*
X127782123Y-115219773D01*
X127780032Y-115097088D01*
X127774947Y-115013000D01*
X127765560Y-114957614D01*
X127750561Y-114921032D01*
X127728642Y-114893359D01*
X127714957Y-114880032D01*
X127620949Y-114826328D01*
X127518364Y-114822307D01*
X127425290Y-114867725D01*
X127408078Y-114884123D01*
X127382832Y-114914957D01*
X127365320Y-114951531D01*
X127354142Y-115004415D01*
X127347896Y-115084177D01*
X127345182Y-115201385D01*
X127344598Y-115362991D01*
X127344598Y-115774288D01*
X127252655Y-115806339D01*
X127187353Y-115828144D01*
X127151525Y-115838297D01*
X127150471Y-115838391D01*
X127147775Y-115810448D01*
X127145345Y-115731630D01*
X127143278Y-115609453D01*
X127141671Y-115451432D01*
X127140623Y-115265083D01*
X127140231Y-115057920D01*
X127140230Y-115048706D01*
X127140230Y-114259020D01*
X127235115Y-114218997D01*
X127330000Y-114178973D01*
X127344598Y-114423857D01*
X127344598Y-114423857D01*
G37*
X127344598Y-114423857D02*
X127353154Y-114543188D01*
X127362981Y-114613506D01*
X127376599Y-114644179D01*
X127396527Y-114644571D01*
X127402989Y-114640910D01*
X127488940Y-114614398D01*
X127600745Y-114615946D01*
X127714414Y-114643199D01*
X127785510Y-114678455D01*
X127858405Y-114734778D01*
X127911693Y-114798519D01*
X127948275Y-114879510D01*
X127971050Y-114987586D01*
X127982919Y-115132580D01*
X127986782Y-115324326D01*
X127986851Y-115361109D01*
X127986897Y-115774288D01*
X127894954Y-115806339D01*
X127829652Y-115828144D01*
X127793824Y-115838297D01*
X127792770Y-115838391D01*
X127789242Y-115810860D01*
X127786239Y-115734923D01*
X127783990Y-115620565D01*
X127782724Y-115477769D01*
X127782529Y-115390951D01*
X127782123Y-115219773D01*
X127780032Y-115097088D01*
X127774947Y-115013000D01*
X127765560Y-114957614D01*
X127750561Y-114921032D01*
X127728642Y-114893359D01*
X127714957Y-114880032D01*
X127620949Y-114826328D01*
X127518364Y-114822307D01*
X127425290Y-114867725D01*
X127408078Y-114884123D01*
X127382832Y-114914957D01*
X127365320Y-114951531D01*
X127354142Y-115004415D01*
X127347896Y-115084177D01*
X127345182Y-115201385D01*
X127344598Y-115362991D01*
X127344598Y-115774288D01*
X127252655Y-115806339D01*
X127187353Y-115828144D01*
X127151525Y-115838297D01*
X127150471Y-115838391D01*
X127147775Y-115810448D01*
X127145345Y-115731630D01*
X127143278Y-115609453D01*
X127141671Y-115451432D01*
X127140623Y-115265083D01*
X127140231Y-115057920D01*
X127140230Y-115048706D01*
X127140230Y-114259020D01*
X127235115Y-114218997D01*
X127330000Y-114178973D01*
X127344598Y-114423857D01*
G36*
X124915552Y-114584676D02*
X125030658Y-114662111D01*
X125119611Y-114773949D01*
X125172749Y-114916265D01*
X125183497Y-115021015D01*
X125182276Y-115064726D01*
X125172056Y-115098194D01*
X125143961Y-115128179D01*
X125089116Y-115161440D01*
X124998645Y-115204738D01*
X124863672Y-115264833D01*
X124862989Y-115265134D01*
X124738751Y-115322037D01*
X124636873Y-115372565D01*
X124567767Y-115411280D01*
X124541846Y-115432740D01*
X124541839Y-115432913D01*
X124564685Y-115479644D01*
X124618109Y-115531154D01*
X124679442Y-115568261D01*
X124710515Y-115575632D01*
X124795289Y-115550138D01*
X124868293Y-115486291D01*
X124903913Y-115416094D01*
X124938180Y-115364343D01*
X125005303Y-115305409D01*
X125084208Y-115254496D01*
X125153821Y-115226809D01*
X125168377Y-115225287D01*
X125184763Y-115250321D01*
X125185750Y-115314311D01*
X125173708Y-115400593D01*
X125151007Y-115492501D01*
X125120014Y-115573369D01*
X125118448Y-115576509D01*
X125025181Y-115706734D01*
X124904304Y-115795311D01*
X124767027Y-115838786D01*
X124624560Y-115833706D01*
X124488112Y-115776616D01*
X124482045Y-115772602D01*
X124374710Y-115675326D01*
X124304132Y-115548409D01*
X124265074Y-115381526D01*
X124259832Y-115334639D01*
X124250548Y-115113329D01*
X124261678Y-115010124D01*
X124541839Y-115010124D01*
X124545479Y-115074503D01*
X124565389Y-115093291D01*
X124615026Y-115079235D01*
X124693267Y-115046009D01*
X124780726Y-115004359D01*
X124782899Y-115003256D01*
X124857030Y-114964265D01*
X124886781Y-114938244D01*
X124879445Y-114910965D01*
X124848553Y-114875121D01*
X124769960Y-114823251D01*
X124685323Y-114819439D01*
X124609403Y-114857189D01*
X124556965Y-114930001D01*
X124541839Y-115010124D01*
X124261678Y-115010124D01*
X124269644Y-114936261D01*
X124318634Y-114795829D01*
X124386836Y-114697447D01*
X124509935Y-114598030D01*
X124645528Y-114548711D01*
X124783955Y-114545568D01*
X124915552Y-114584676D01*
X124915552Y-114584676D01*
G37*
X124915552Y-114584676D02*
X125030658Y-114662111D01*
X125119611Y-114773949D01*
X125172749Y-114916265D01*
X125183497Y-115021015D01*
X125182276Y-115064726D01*
X125172056Y-115098194D01*
X125143961Y-115128179D01*
X125089116Y-115161440D01*
X124998645Y-115204738D01*
X124863672Y-115264833D01*
X124862989Y-115265134D01*
X124738751Y-115322037D01*
X124636873Y-115372565D01*
X124567767Y-115411280D01*
X124541846Y-115432740D01*
X124541839Y-115432913D01*
X124564685Y-115479644D01*
X124618109Y-115531154D01*
X124679442Y-115568261D01*
X124710515Y-115575632D01*
X124795289Y-115550138D01*
X124868293Y-115486291D01*
X124903913Y-115416094D01*
X124938180Y-115364343D01*
X125005303Y-115305409D01*
X125084208Y-115254496D01*
X125153821Y-115226809D01*
X125168377Y-115225287D01*
X125184763Y-115250321D01*
X125185750Y-115314311D01*
X125173708Y-115400593D01*
X125151007Y-115492501D01*
X125120014Y-115573369D01*
X125118448Y-115576509D01*
X125025181Y-115706734D01*
X124904304Y-115795311D01*
X124767027Y-115838786D01*
X124624560Y-115833706D01*
X124488112Y-115776616D01*
X124482045Y-115772602D01*
X124374710Y-115675326D01*
X124304132Y-115548409D01*
X124265074Y-115381526D01*
X124259832Y-115334639D01*
X124250548Y-115113329D01*
X124261678Y-115010124D01*
X124541839Y-115010124D01*
X124545479Y-115074503D01*
X124565389Y-115093291D01*
X124615026Y-115079235D01*
X124693267Y-115046009D01*
X124780726Y-115004359D01*
X124782899Y-115003256D01*
X124857030Y-114964265D01*
X124886781Y-114938244D01*
X124879445Y-114910965D01*
X124848553Y-114875121D01*
X124769960Y-114823251D01*
X124685323Y-114819439D01*
X124609403Y-114857189D01*
X124556965Y-114930001D01*
X124541839Y-115010124D01*
X124261678Y-115010124D01*
X124269644Y-114936261D01*
X124318634Y-114795829D01*
X124386836Y-114697447D01*
X124509935Y-114598030D01*
X124645528Y-114548711D01*
X124783955Y-114545568D01*
X124915552Y-114584676D01*
G36*
X122648221Y-114566015D02*
X122785061Y-114637968D01*
X122886051Y-114753766D01*
X122921925Y-114828213D01*
X122949839Y-114939992D01*
X122964129Y-115081227D01*
X122965484Y-115235371D01*
X122954595Y-115385879D01*
X122932153Y-115516205D01*
X122898850Y-115609803D01*
X122888615Y-115625922D01*
X122767382Y-115746249D01*
X122623387Y-115818317D01*
X122467139Y-115839408D01*
X122309148Y-115806802D01*
X122265180Y-115787253D01*
X122179556Y-115727012D01*
X122104408Y-115647135D01*
X122097306Y-115637004D01*
X122068439Y-115588181D01*
X122049357Y-115535990D01*
X122038084Y-115467285D01*
X122032645Y-115368918D01*
X122031062Y-115227744D01*
X122031035Y-115196092D01*
X122031107Y-115186019D01*
X122322989Y-115186019D01*
X122324687Y-115319256D01*
X122331372Y-115407674D01*
X122345425Y-115464785D01*
X122369229Y-115504102D01*
X122381379Y-115517241D01*
X122451236Y-115567172D01*
X122519059Y-115564895D01*
X122587635Y-115521584D01*
X122628535Y-115475346D01*
X122652758Y-115407857D01*
X122666361Y-115301433D01*
X122667294Y-115289020D01*
X122669616Y-115096147D01*
X122645350Y-114952900D01*
X122594824Y-114860160D01*
X122518368Y-114818807D01*
X122491076Y-114816552D01*
X122419411Y-114827893D01*
X122370390Y-114867184D01*
X122340418Y-114942326D01*
X122325899Y-115061222D01*
X122322989Y-115186019D01*
X122031107Y-115186019D01*
X122032122Y-115045659D01*
X122036688Y-114940549D01*
X122046688Y-114867714D01*
X122064079Y-114814108D01*
X122090816Y-114766681D01*
X122096724Y-114757864D01*
X122196032Y-114639007D01*
X122304242Y-114570008D01*
X122435981Y-114542619D01*
X122480717Y-114541281D01*
X122648221Y-114566015D01*
X122648221Y-114566015D01*
G37*
X122648221Y-114566015D02*
X122785061Y-114637968D01*
X122886051Y-114753766D01*
X122921925Y-114828213D01*
X122949839Y-114939992D01*
X122964129Y-115081227D01*
X122965484Y-115235371D01*
X122954595Y-115385879D01*
X122932153Y-115516205D01*
X122898850Y-115609803D01*
X122888615Y-115625922D01*
X122767382Y-115746249D01*
X122623387Y-115818317D01*
X122467139Y-115839408D01*
X122309148Y-115806802D01*
X122265180Y-115787253D01*
X122179556Y-115727012D01*
X122104408Y-115647135D01*
X122097306Y-115637004D01*
X122068439Y-115588181D01*
X122049357Y-115535990D01*
X122038084Y-115467285D01*
X122032645Y-115368918D01*
X122031062Y-115227744D01*
X122031035Y-115196092D01*
X122031107Y-115186019D01*
X122322989Y-115186019D01*
X122324687Y-115319256D01*
X122331372Y-115407674D01*
X122345425Y-115464785D01*
X122369229Y-115504102D01*
X122381379Y-115517241D01*
X122451236Y-115567172D01*
X122519059Y-115564895D01*
X122587635Y-115521584D01*
X122628535Y-115475346D01*
X122652758Y-115407857D01*
X122666361Y-115301433D01*
X122667294Y-115289020D01*
X122669616Y-115096147D01*
X122645350Y-114952900D01*
X122594824Y-114860160D01*
X122518368Y-114818807D01*
X122491076Y-114816552D01*
X122419411Y-114827893D01*
X122370390Y-114867184D01*
X122340418Y-114942326D01*
X122325899Y-115061222D01*
X122322989Y-115186019D01*
X122031107Y-115186019D01*
X122032122Y-115045659D01*
X122036688Y-114940549D01*
X122046688Y-114867714D01*
X122064079Y-114814108D01*
X122090816Y-114766681D01*
X122096724Y-114757864D01*
X122196032Y-114639007D01*
X122304242Y-114570008D01*
X122435981Y-114542619D01*
X122480717Y-114541281D01*
X122648221Y-114566015D01*
G36*
X126017429Y-114577719D02*
X126111123Y-114631914D01*
X126176264Y-114685707D01*
X126223907Y-114742066D01*
X126256728Y-114810987D01*
X126277406Y-114902468D01*
X126288620Y-115026506D01*
X126293049Y-115193098D01*
X126293563Y-115312851D01*
X126293563Y-115753659D01*
X126169483Y-115809283D01*
X126045402Y-115864907D01*
X126030805Y-115382095D01*
X126024773Y-115201779D01*
X126018445Y-115070901D01*
X126010606Y-114980511D01*
X126000037Y-114921664D01*
X125985523Y-114885413D01*
X125965848Y-114862810D01*
X125959535Y-114857917D01*
X125863888Y-114819706D01*
X125767207Y-114834827D01*
X125709655Y-114874943D01*
X125686245Y-114903370D01*
X125670039Y-114940672D01*
X125659741Y-114997223D01*
X125654049Y-115083394D01*
X125651664Y-115209558D01*
X125651264Y-115341042D01*
X125651186Y-115505999D01*
X125648361Y-115622761D01*
X125638907Y-115701510D01*
X125618940Y-115752431D01*
X125584576Y-115785706D01*
X125531932Y-115811520D01*
X125461617Y-115838344D01*
X125384820Y-115867542D01*
X125393962Y-115349346D01*
X125397643Y-115162539D01*
X125401950Y-115024490D01*
X125408123Y-114925568D01*
X125417402Y-114856145D01*
X125431027Y-114806590D01*
X125450239Y-114767273D01*
X125473402Y-114732584D01*
X125585152Y-114621770D01*
X125721513Y-114557689D01*
X125869825Y-114542339D01*
X126017429Y-114577719D01*
X126017429Y-114577719D01*
G37*
X126017429Y-114577719D02*
X126111123Y-114631914D01*
X126176264Y-114685707D01*
X126223907Y-114742066D01*
X126256728Y-114810987D01*
X126277406Y-114902468D01*
X126288620Y-115026506D01*
X126293049Y-115193098D01*
X126293563Y-115312851D01*
X126293563Y-115753659D01*
X126169483Y-115809283D01*
X126045402Y-115864907D01*
X126030805Y-115382095D01*
X126024773Y-115201779D01*
X126018445Y-115070901D01*
X126010606Y-114980511D01*
X126000037Y-114921664D01*
X125985523Y-114885413D01*
X125965848Y-114862810D01*
X125959535Y-114857917D01*
X125863888Y-114819706D01*
X125767207Y-114834827D01*
X125709655Y-114874943D01*
X125686245Y-114903370D01*
X125670039Y-114940672D01*
X125659741Y-114997223D01*
X125654049Y-115083394D01*
X125651664Y-115209558D01*
X125651264Y-115341042D01*
X125651186Y-115505999D01*
X125648361Y-115622761D01*
X125638907Y-115701510D01*
X125618940Y-115752431D01*
X125584576Y-115785706D01*
X125531932Y-115811520D01*
X125461617Y-115838344D01*
X125384820Y-115867542D01*
X125393962Y-115349346D01*
X125397643Y-115162539D01*
X125401950Y-115024490D01*
X125408123Y-114925568D01*
X125417402Y-114856145D01*
X125431027Y-114806590D01*
X125450239Y-114767273D01*
X125473402Y-114732584D01*
X125585152Y-114621770D01*
X125721513Y-114557689D01*
X125869825Y-114542339D01*
X126017429Y-114577719D01*
G36*
X123771900Y-114561903D02*
X123883450Y-114617522D01*
X123981908Y-114719931D01*
X124009023Y-114757864D01*
X124038562Y-114807500D01*
X124057728Y-114861412D01*
X124068693Y-114933364D01*
X124073629Y-115037122D01*
X124074713Y-115174101D01*
X124069818Y-115361815D01*
X124052804Y-115502758D01*
X124020177Y-115607908D01*
X123968442Y-115688243D01*
X123894104Y-115754741D01*
X123888642Y-115758678D01*
X123815380Y-115798953D01*
X123727160Y-115818880D01*
X123614962Y-115823793D01*
X123432567Y-115823793D01*
X123432491Y-116000857D01*
X123430793Y-116099470D01*
X123420450Y-116157314D01*
X123393422Y-116192006D01*
X123341668Y-116221164D01*
X123329239Y-116227121D01*
X123271077Y-116255039D01*
X123226044Y-116272672D01*
X123192559Y-116274194D01*
X123169038Y-116253781D01*
X123153900Y-116205607D01*
X123145563Y-116123846D01*
X123142444Y-116002672D01*
X123142960Y-115836260D01*
X123145529Y-115618785D01*
X123146332Y-115553736D01*
X123149222Y-115329502D01*
X123151812Y-115182821D01*
X123432414Y-115182821D01*
X123433991Y-115307326D01*
X123441000Y-115388787D01*
X123456858Y-115442515D01*
X123484981Y-115483823D01*
X123504075Y-115503971D01*
X123582135Y-115562921D01*
X123651247Y-115567720D01*
X123722560Y-115519038D01*
X123724368Y-115517241D01*
X123753383Y-115479618D01*
X123771033Y-115428484D01*
X123779936Y-115349738D01*
X123782709Y-115229276D01*
X123782759Y-115202588D01*
X123776058Y-115036583D01*
X123754248Y-114921505D01*
X123714765Y-114851254D01*
X123655044Y-114819729D01*
X123620528Y-114816552D01*
X123538611Y-114831460D01*
X123482421Y-114880548D01*
X123448598Y-114970362D01*
X123433780Y-115107445D01*
X123432414Y-115182821D01*
X123151812Y-115182821D01*
X123152287Y-115155952D01*
X123156247Y-115025382D01*
X123161826Y-114930087D01*
X123169746Y-114862364D01*
X123180731Y-114814507D01*
X123195501Y-114778813D01*
X123214782Y-114747578D01*
X123223049Y-114735824D01*
X123332712Y-114624797D01*
X123471365Y-114561847D01*
X123631754Y-114544297D01*
X123771900Y-114561903D01*
X123771900Y-114561903D01*
G37*
X123771900Y-114561903D02*
X123883450Y-114617522D01*
X123981908Y-114719931D01*
X124009023Y-114757864D01*
X124038562Y-114807500D01*
X124057728Y-114861412D01*
X124068693Y-114933364D01*
X124073629Y-115037122D01*
X124074713Y-115174101D01*
X124069818Y-115361815D01*
X124052804Y-115502758D01*
X124020177Y-115607908D01*
X123968442Y-115688243D01*
X123894104Y-115754741D01*
X123888642Y-115758678D01*
X123815380Y-115798953D01*
X123727160Y-115818880D01*
X123614962Y-115823793D01*
X123432567Y-115823793D01*
X123432491Y-116000857D01*
X123430793Y-116099470D01*
X123420450Y-116157314D01*
X123393422Y-116192006D01*
X123341668Y-116221164D01*
X123329239Y-116227121D01*
X123271077Y-116255039D01*
X123226044Y-116272672D01*
X123192559Y-116274194D01*
X123169038Y-116253781D01*
X123153900Y-116205607D01*
X123145563Y-116123846D01*
X123142444Y-116002672D01*
X123142960Y-115836260D01*
X123145529Y-115618785D01*
X123146332Y-115553736D01*
X123149222Y-115329502D01*
X123151812Y-115182821D01*
X123432414Y-115182821D01*
X123433991Y-115307326D01*
X123441000Y-115388787D01*
X123456858Y-115442515D01*
X123484981Y-115483823D01*
X123504075Y-115503971D01*
X123582135Y-115562921D01*
X123651247Y-115567720D01*
X123722560Y-115519038D01*
X123724368Y-115517241D01*
X123753383Y-115479618D01*
X123771033Y-115428484D01*
X123779936Y-115349738D01*
X123782709Y-115229276D01*
X123782759Y-115202588D01*
X123776058Y-115036583D01*
X123754248Y-114921505D01*
X123714765Y-114851254D01*
X123655044Y-114819729D01*
X123620528Y-114816552D01*
X123538611Y-114831460D01*
X123482421Y-114880548D01*
X123448598Y-114970362D01*
X123433780Y-115107445D01*
X123432414Y-115182821D01*
X123151812Y-115182821D01*
X123152287Y-115155952D01*
X123156247Y-115025382D01*
X123161826Y-114930087D01*
X123169746Y-114862364D01*
X123180731Y-114814507D01*
X123195501Y-114778813D01*
X123214782Y-114747578D01*
X123223049Y-114735824D01*
X123332712Y-114624797D01*
X123471365Y-114561847D01*
X123631754Y-114544297D01*
X123771900Y-114561903D01*
G04 #@! TD*
M02*
